<svg width="29" height="29" viewBox="0 0 29 29" fill="none" xmlns="http://www.w3.org/2000/svg">
<circle cx="21.5" cy="19.5" r="7.5" fill="#FFD952"/>
<path d="M25.375 14.5C25.0545 14.5 24.7472 14.6273 24.5206 14.8539C24.294 15.0805 24.1667 15.3879 24.1667 15.7083V22.9583C24.1667 23.2788 24.0394 23.5862 23.8128 23.8128C23.5862 24.0394 23.2788 24.1667 22.9584 24.1667H6.04169C5.72122 24.1667 5.41387 24.0394 5.18727 23.8128C4.96066 23.5862 4.83335 23.2788 4.83335 22.9583V6.04167C4.83335 5.7212 4.96066 5.41386 5.18727 5.18725C5.41387 4.96065 5.72122 4.83334 6.04169 4.83334H13.2917C13.6122 4.83334 13.9195 4.70603 14.1461 4.47943C14.3727 4.25282 14.5 3.94548 14.5 3.62501C14.5 3.30454 14.3727 2.99719 14.1461 2.77059C13.9195 2.54398 13.6122 2.41667 13.2917 2.41667H6.04169C5.08028 2.41667 4.15824 2.79859 3.47843 3.47841C2.79861 4.15823 2.41669 5.08026 2.41669 6.04167V22.9583C2.41669 23.9198 2.79861 24.8418 3.47843 25.5216C4.15824 26.2014 5.08028 26.5833 6.04169 26.5833H22.9584C23.9198 26.5833 24.8418 26.2014 25.5216 25.5216C26.2014 24.8418 26.5834 23.9198 26.5834 22.9583V15.7083C26.5834 15.3879 26.456 15.0805 26.2294 14.8539C26.0028 14.6273 25.6955 14.5 25.375 14.5ZM7.25002 15.4183V20.5417C7.25002 20.8621 7.37733 21.1695 7.60393 21.3961C7.83054 21.6227 8.13788 21.75 8.45835 21.75H13.5817C13.7407 21.7509 13.8984 21.7204 14.0456 21.6603C14.1928 21.6002 14.3267 21.5116 14.4396 21.3996L22.8013 13.0258L26.2329 9.66667C26.3462 9.55434 26.4361 9.4207 26.4974 9.27345C26.5588 9.12621 26.5904 8.96827 26.5904 8.80876C26.5904 8.64924 26.5588 8.49131 26.4974 8.34406C26.4361 8.19681 26.3462 8.06317 26.2329 7.95084L21.1096 2.76709C20.9973 2.65384 20.8636 2.56394 20.7164 2.5026C20.5691 2.44125 20.4112 2.40967 20.2517 2.40967C20.0922 2.40967 19.9342 2.44125 19.787 2.5026C19.6397 2.56394 19.5061 2.65384 19.3938 2.76709L15.9863 6.18667L7.60044 14.5604C7.48845 14.6733 7.39985 14.8072 7.33971 14.9545C7.27958 15.1017 7.2491 15.2593 7.25002 15.4183ZM20.2517 5.32876L23.6713 8.74834L21.9554 10.4642L18.5359 7.04459L20.2517 5.32876ZM9.66669 15.9138L16.8321 8.74834L20.2517 12.1679L13.0863 19.3333H9.66669V15.9138Z" fill="black"/>
</svg>
