<svg width="29" height="29" viewBox="0 0 29 29" fill="none" xmlns="http://www.w3.org/2000/svg">
<circle cx="21.5" cy="19.5" r="7.5" fill="#FFD952"/>
<path d="M13.2192 7.34669C13.643 7.28172 14.0712 7.2494 14.5 7.25002C18.3425 7.25002 21.9554 10.0171 24.0579 14.5C23.7364 15.1822 23.3732 15.844 22.9704 16.4817C22.8426 16.6796 22.7754 16.9106 22.7771 17.1463C22.7798 17.41 22.8687 17.6656 23.0302 17.874C23.1917 18.0825 23.417 18.2324 23.6717 18.3008C23.9264 18.3693 24.1964 18.3526 24.4407 18.2532C24.685 18.1538 24.8901 17.9772 25.0246 17.7504C25.5876 16.8659 26.0766 15.9363 26.4867 14.9713C26.5515 14.8205 26.5849 14.6581 26.5849 14.494C26.5849 14.3299 26.5515 14.1675 26.4867 14.0167C24.0459 8.3496 19.4542 4.83335 14.5 4.83335C13.9329 4.8305 13.3667 4.87903 12.8084 4.97835C12.6497 5.00533 12.4979 5.0633 12.3616 5.14894C12.2253 5.23459 12.1072 5.34624 12.0141 5.47752C11.921 5.6088 11.8546 5.75713 11.8188 5.91406C11.783 6.07098 11.7785 6.23342 11.8054 6.3921C11.8324 6.55078 11.8904 6.7026 11.976 6.83888C12.0617 6.97515 12.1733 7.09323 12.3046 7.18636C12.4359 7.27949 12.5842 7.34585 12.7411 7.38165C12.8981 7.41745 13.0605 7.422 13.2192 7.39502V7.34669ZM4.48294 2.7671C4.37027 2.65444 4.23652 2.56507 4.08932 2.5041C3.94212 2.44313 3.78435 2.41174 3.62502 2.41174C3.46569 2.41174 3.30792 2.44313 3.16072 2.5041C3.01352 2.56507 2.87977 2.65444 2.7671 2.7671C2.53957 2.99464 2.41174 3.30324 2.41174 3.62502C2.41174 3.9468 2.53957 4.2554 2.7671 4.48294L6.51294 8.21669C4.80384 9.86187 3.4436 11.8344 2.51335 14.0167C2.44682 14.1691 2.41248 14.3337 2.41248 14.5C2.41248 14.6664 2.44682 14.8309 2.51335 14.9834C4.95419 20.6504 9.54585 24.1667 14.5 24.1667C16.6715 24.1517 18.7917 23.5051 20.6021 22.3059L24.5171 26.2329C24.6294 26.3462 24.7631 26.4361 24.9103 26.4974C25.0576 26.5588 25.2155 26.5904 25.375 26.5904C25.5345 26.5904 25.6925 26.5588 25.8397 26.4974C25.987 26.4361 26.1206 26.3462 26.2329 26.2329C26.3462 26.1206 26.4361 25.987 26.4974 25.8397C26.5588 25.6925 26.5904 25.5345 26.5904 25.375C26.5904 25.2155 26.5588 25.0576 26.4974 24.9103C26.4361 24.7631 26.3462 24.6294 26.2329 24.5171L4.48294 2.7671ZM12.1679 13.8717L15.1284 16.8321C14.9241 16.8907 14.7125 16.9192 14.5 16.9167C13.8591 16.9167 13.2444 16.6621 12.7912 16.2089C12.338 15.7556 12.0834 15.141 12.0834 14.5C12.0809 14.2876 12.1094 14.0759 12.1679 13.8717ZM14.5 21.75C10.6575 21.75 7.0446 18.9829 4.95419 14.5C5.73488 12.7766 6.8429 11.2213 8.21669 9.92044L10.3554 12.0834C9.85307 13.0002 9.66154 14.0553 9.80958 15.0902C9.95763 16.1252 10.4373 17.0842 11.1765 17.8235C11.9158 18.5628 12.8748 19.0424 13.9098 19.1905C14.9448 19.3385 15.9998 19.147 16.9167 18.6446L18.8379 20.5417C17.5222 21.3161 16.0267 21.7327 14.5 21.75Z" fill="black"/>
</svg>
