<svg width="1190" height="2280" viewBox="0 0 1190 2280" fill="none" xmlns="http://www.w3.org/2000/svg">
<path d="M746.5 321.5C760 260.5 761.652 216.515 713.5 159C681.829 121.171 612.226 100 565.5 100C504.5 100 457.5 106.028 410 138.5C343 184.302 306.001 243.493 298 347.5C298 459 347.388 548.119 445 605.5C514.716 636.873 574.749 630.66 650 633.5C684.918 634.818 764.815 633.5 814.5 633.5C868 633.5 918.986 651.5 928 659.5C937.014 667.5 994.93 705.013 1012.5 746C1024.94 775.031 1034.77 833.723 1024 866.5C990 970 930 1013 868 1013C762.5 1013 656.5 999.286 584.5 989C416.5 965 335.837 937.5 229 1054.5C141.339 1150.5 158.776 1235.11 201 1292.5C272 1389 369 1441.5 471 1441.5C573 1441.5 634 1418 777.5 1418C896.5 1418 955.5 1465.5 982.5 1490C1009.5 1514.5 1051.61 1562 1077 1664.5C1089.17 1713.66 1098 1785 1077 1886C1060.9 1963.45 1011 2026 946.5 2082.5C882 2139 778.5 2179 664.5 2179C550.5 2179 491.5 2182.5 382 2156.5C272.5 2130.5 181.415 2055.5 137 1985C105.5 1935 82.7291 1858.5 121.5 1799C155.384 1747 223 1697.5 312.5 1697.5C402 1697.5 444 1769 521 1799" stroke="#FBBA25" stroke-width="200" stroke-linecap="round"/>
</svg>
