<svg width="30" height="30" viewBox="0 0 30 30" fill="none" xmlns="http://www.w3.org/2000/svg">
<ellipse cx="21.9643" cy="21.9642" rx="8.03571" ry="8.03571" fill="#FFD952"/>
<path d="M21.875 11.2486C20.7559 11.2482 19.6541 11.525 18.6682 12.0543C18.5782 11.8173 18.4183 11.6133 18.2096 11.4694C18.0009 11.3255 17.7534 11.2485 17.5 11.2486H12.5C12.3358 11.2485 12.1732 11.2808 12.0215 11.3436C11.8698 11.4064 11.732 11.4985 11.6159 11.6145C11.4998 11.7306 11.4077 11.8685 11.3449 12.0202C11.2821 12.1719 11.2499 12.3345 11.25 12.4986V27.4986C11.2499 27.6628 11.2821 27.8254 11.3449 27.9771C11.4077 28.1288 11.4998 28.2666 11.6159 28.3827C11.732 28.4988 11.8698 28.5909 12.0215 28.6537C12.1732 28.7165 12.3358 28.7487 12.5 28.7486H17.5C17.6641 28.7487 17.8267 28.7165 17.9784 28.6537C18.1301 28.5909 18.268 28.4988 18.3841 28.3827C18.5002 28.2666 18.5922 28.1288 18.655 27.9771C18.7178 27.8254 18.7501 27.6628 18.75 27.4986V20.6236C18.75 20.2921 18.8817 19.9742 19.1161 19.7398C19.3505 19.5053 19.6684 19.3736 20 19.3736C20.3315 19.3736 20.6494 19.5053 20.8838 19.7398C21.1183 19.9742 21.25 20.2921 21.25 20.6236V27.4986C21.2499 27.6628 21.2821 27.8254 21.3449 27.9771C21.4077 28.1288 21.4998 28.2666 21.6159 28.3827C21.732 28.4988 21.8698 28.5909 22.0215 28.6537C22.1732 28.7165 22.3358 28.7487 22.5 28.7486H27.5C27.6641 28.7487 27.8267 28.7165 27.9784 28.6537C28.1301 28.5909 28.268 28.4988 28.3841 28.3827C28.5002 28.2666 28.5922 28.1288 28.655 27.9771C28.7178 27.8254 28.7501 27.6628 28.75 27.4986V18.1236C28.7477 16.301 28.0226 14.5536 26.7338 13.2648C25.445 11.976 23.6976 11.2509 21.875 11.2486ZM26.25 26.2486H23.75V20.6236C23.75 19.6291 23.3549 18.6752 22.6516 17.972C21.9484 17.2687 20.9945 16.8736 20 16.8736C19.0054 16.8736 18.0516 17.2687 17.3483 17.972C16.6451 18.6752 16.25 19.6291 16.25 20.6236V26.2486H13.75V13.7486H16.25V14.6276C16.2501 14.8866 16.3307 15.1391 16.4805 15.3504C16.6304 15.5616 16.8421 15.7211 17.0865 15.8069C17.3309 15.8926 17.5959 15.9004 17.8449 15.8291C18.0939 15.7578 18.3146 15.6109 18.4765 15.4088C19.0375 14.6963 19.8069 14.1768 20.6774 13.9229C21.5479 13.6689 22.476 13.693 23.3321 13.992C24.1882 14.291 24.9296 14.8499 25.4527 15.5906C25.9758 16.3313 26.2545 17.2169 26.25 18.1236V26.2486ZM8.74996 11.2486H3.74996C3.58578 11.2485 3.4232 11.2808 3.2715 11.3436C3.1198 11.4064 2.98196 11.4985 2.86587 11.6145C2.74978 11.7306 2.65771 11.8685 2.59492 12.0202C2.53214 12.1719 2.49987 12.3345 2.49996 12.4986V27.4986C2.49987 27.6628 2.53214 27.8254 2.59492 27.9771C2.6577 28.1288 2.74978 28.2666 2.86587 28.3827C2.98196 28.4988 3.1198 28.5909 3.2715 28.6537C3.4232 28.7165 3.58578 28.7487 3.74996 28.7486H8.74996C8.91414 28.7487 9.07673 28.7165 9.22843 28.6537C9.38013 28.5909 9.51797 28.4988 9.63406 28.3827C9.75015 28.2666 9.84222 28.1288 9.90501 27.9771C9.96779 27.8254 10.0001 27.6628 9.99996 27.4986V12.4986C10.0001 12.3345 9.96779 12.1719 9.905 12.0202C9.84222 11.8685 9.75015 11.7306 9.63406 11.6145C9.51796 11.4985 9.38013 11.4064 9.22843 11.3436C9.07673 11.2808 8.91414 11.2485 8.74996 11.2486ZM7.49996 26.2486H4.99996V13.7486H7.49996V26.2486ZM6.26828 1.92739C5.72123 1.89464 5.17323 1.97351 4.65762 2.15919C4.14201 2.34488 3.66955 2.6335 3.26899 3.0075C2.86842 3.38151 2.54811 3.83308 2.32754 4.33476C2.10697 4.83644 1.99074 5.37774 1.98593 5.92575C1.98113 6.47376 2.08783 7.01702 2.29957 7.52249C2.5113 8.02796 2.82364 8.48509 3.21759 8.86606C3.61153 9.24704 4.07885 9.54391 4.59112 9.73861C5.1034 9.93331 5.64992 10.0218 6.19746 9.99864H6.23286C6.78136 10.0312 7.33074 9.95162 7.84743 9.7647C8.36413 9.57779 8.83728 9.28748 9.23799 8.91152C9.6387 8.53557 9.95854 8.08185 10.178 7.57811C10.3974 7.07437 10.5118 6.53117 10.5142 5.98171C10.5166 5.43225 10.407 4.88808 10.192 4.38243C9.97698 3.87678 9.66113 3.42028 9.26374 3.04082C8.86634 2.66136 8.39575 2.36692 7.88072 2.17548C7.36568 1.98404 6.81702 1.89962 6.26826 1.92739H6.26828ZM6.23288 7.49864H6.19746C5.9813 7.52489 5.76202 7.50461 5.55433 7.43917C5.34664 7.37373 5.15534 7.26464 4.99327 7.11922C4.83119 6.97379 4.70209 6.79539 4.61461 6.59598C4.52713 6.39657 4.48329 6.18076 4.48605 5.96302C4.48605 5.0304 5.18551 4.42737 6.26828 4.42737C6.48665 4.39826 6.70872 4.41629 6.91955 4.48023C7.13037 4.54417 7.32504 4.65255 7.49045 4.79807C7.65585 4.94358 7.78816 5.12285 7.87845 5.3238C7.96874 5.52475 8.01492 5.74272 8.01388 5.96302C8.01388 6.89564 7.31441 7.49864 6.23288 7.49864Z" fill="black"/>
</svg>
