<svg width="27" height="27" viewBox="0 0 27 27" fill="none" xmlns="http://www.w3.org/2000/svg">
<circle cx="19.5" cy="18.5" r="7.5" fill="#FFD952"/>
<path d="M25.4262 2.31974C25.3754 2.12705 25.2744 1.95129 25.1335 1.81039C24.9926 1.66949 24.8169 1.5685 24.6242 1.51774C22.3164 0.918327 19.8862 0.982887 17.6135 1.70399C15.3408 2.42509 13.3179 3.7734 11.7779 5.59368L10.5236 7.08299L7.59317 6.37595C6.88075 6.12758 6.10253 6.14539 5.40221 6.42607C4.70189 6.70675 4.12679 7.23136 3.78311 7.903L1.3079 12.2904C1.22117 12.4441 1.17181 12.616 1.16381 12.7923C1.15582 12.9686 1.1894 13.1442 1.26186 13.3051C1.33432 13.466 1.44361 13.6076 1.58091 13.7185C1.71821 13.8293 1.87966 13.9063 2.05222 13.9432L5.50906 14.6843C5.21623 15.5757 5.00714 16.4924 4.8845 17.4226C4.86226 17.5935 4.87958 17.7672 4.9351 17.9304C4.99062 18.0935 5.08287 18.2417 5.20474 18.3636L8.69235 21.8512C8.79677 21.9557 8.92076 22.0386 9.05724 22.0952C9.19371 22.1517 9.34 22.1808 9.48773 22.1808C9.52014 22.1808 9.55255 22.1792 9.58551 22.1764C10.5365 22.0909 11.476 21.9062 12.3885 21.6252L13.1127 25.0038C13.1497 25.1763 13.2267 25.3377 13.3376 25.4749C13.4485 25.6122 13.59 25.7214 13.7509 25.7939C13.9118 25.8663 14.0874 25.8999 14.2637 25.8919C14.44 25.884 14.6119 25.8347 14.7656 25.7481L19.159 23.2701C19.7773 22.8944 20.2604 22.332 20.5384 21.664C20.8164 20.996 20.8751 20.2569 20.7059 19.5534L19.9536 16.4496L21.3453 15.1699C23.1724 13.6341 24.5259 11.6112 25.2483 9.33631C25.9707 7.06147 26.0324 4.62826 25.4262 2.31974ZM4.01878 12.0635L5.76944 8.95879C5.87818 8.74802 6.06344 8.58683 6.28723 8.50828C6.51102 8.42974 6.75638 8.43978 6.97299 8.53637L8.90508 9.00459L8.17383 9.87286C7.48056 10.7038 6.88094 11.6085 6.38584 12.5707L4.01878 12.0635ZM18.0478 21.3135L14.9925 23.0366L14.5093 20.7814C15.4887 20.2929 16.4012 19.6804 17.2243 18.959L18.0608 18.1899L18.5147 20.0626C18.5735 20.2939 18.5604 20.5376 18.4769 20.7611C18.3935 20.9846 18.2437 21.1774 18.0478 21.3135ZM19.8638 13.4775L15.7187 17.287C14.0779 18.7059 12.0541 19.6078 9.90195 19.8792L7.19711 17.1744C7.5604 15.0166 8.49279 12.9948 9.8981 11.3176L11.7862 9.07587C11.8177 9.04296 11.8471 9.00811 11.8741 8.97151L13.4884 7.05487C14.682 5.64512 16.2284 4.5774 17.9696 3.96071C19.7107 3.34403 21.5844 3.20048 23.3992 3.54473C23.7518 5.36523 23.6098 7.24696 22.988 8.99392C22.3662 10.7409 21.2873 12.2892 19.8638 13.4775ZM18.8254 6.54326C18.4917 6.54326 18.1654 6.64223 17.8879 6.82766C17.6104 7.01308 17.3941 7.27663 17.2664 7.58498C17.1387 7.89333 17.1052 8.23263 17.1704 8.55998C17.2355 8.88732 17.3962 9.188 17.6322 9.424C17.8682 9.66 18.1689 9.82072 18.4962 9.88584C18.8236 9.95095 19.1629 9.91753 19.4712 9.78981C19.7796 9.66209 20.0431 9.44579 20.2285 9.16829C20.414 8.89078 20.5129 8.56452 20.5129 8.23076C20.5129 8.00915 20.4693 7.7897 20.3845 7.58495C20.2997 7.3802 20.1754 7.19417 20.0187 7.03746C19.862 6.88076 19.6759 6.75646 19.4712 6.67166C19.2664 6.58686 19.047 6.54322 18.8254 6.54324L18.8254 6.54326Z" fill="black"/>
</svg>
